<?xml version="1.0" encoding="UTF-8"?>
<svg version="1.1" xmlns="http://www.w3.org/2000/svg" width="56" height="60">
<path d="M0 0 C0.020625 0.9075 0.04125 1.815 0.0625 2.75 C1.15171449 6.52594357 1.81767832 6.95393606 5.0625 8.9375 C9.90985583 11.37661535 12.77291835 10.97454065 18 10 C19.32 10.66 20.64 11.32 22 12 C22 14.97 22 17.94 22 21 C20.02 21.99 20.02 21.99 18 23 C18 26.3 18 29.6 18 33 C19.32 33.66 20.64 34.32 22 35 C22 37.97 22 40.94 22 44 C18 46 18 46 14.3125 45.3125 C9.67187977 44.57977049 6.70342018 46.06002658 2.7734375 48.4609375 C0.68261065 49.98010368 0.68261065 49.98010368 0.1875 53.1875 C0.0946875 54.5796875 0.0946875 54.5796875 0 56 C-1.6875 57.4375 -1.6875 57.4375 -4 58 C-6.97524961 57.70247504 -9.32241195 57.33879403 -12 56 C-12.020625 55.0925 -12.04125 54.185 -12.0625 53.25 C-13.15171449 49.47405643 -13.81767832 49.04606394 -17.0625 47.0625 C-21.90985583 44.62338465 -24.77291835 45.02545935 -30 46 C-31.32 45.34 -32.64 44.68 -34 44 C-34 41.03 -34 38.06 -34 35 C-32.68 34.34 -31.36 33.68 -30 33 C-30 29.7 -30 26.4 -30 23 C-31.32 22.34 -32.64 21.68 -34 21 C-34 18.03 -34 15.06 -34 12 C-30 10 -30 10 -26.3125 10.6875 C-21.67187977 11.42022951 -18.70342018 9.93997342 -14.7734375 7.5390625 C-12.68261065 6.01989632 -12.68261065 6.01989632 -12.1875 2.8125 C-12.125625 1.884375 -12.06375 0.95625 -12 0 C-8.37953405 -3.08410063 -4.00543623 -2.00271811 0 0 Z M-7 1 C-7 1.66 -7 2.32 -7 3 C-6.34 3 -5.68 3 -5 3 C-5 2.34 -5 1.68 -5 1 C-5.66 1 -6.32 1 -7 1 Z M-10 5 C-9.67 5.66 -9.34 6.32 -9 7 C-8.34 6.67 -7.68 6.34 -7 6 C-7.99 5.67 -8.98 5.34 -10 5 Z M-4 5 C-4.33 5.66 -4.66 6.32 -5 7 C-4.01 6.67 -3.02 6.34 -2 6 C-2.66 5.67 -3.32 5.34 -4 5 Z M-17.25 11.9375 C-18.14203125 12.50339844 -19.0340625 13.06929687 -19.953125 13.65234375 C-20.62859375 14.09707031 -21.3040625 14.54179687 -22 15 C-21.67 16.32 -21.34 17.64 -21 19 C-20.01 19 -19.02 19 -18 19 C-17.4225 18.38125 -16.845 17.7625 -16.25 17.125 C-13.39303758 14.42675771 -10.78026645 13.87236918 -7 13 C-7.63131181 9.9296767 -7.63131181 9.9296767 -9.734375 9.12890625 C-12.96270944 8.94522515 -14.56167054 10.20423496 -17.25 11.9375 Z M-5 11 C-5 11.66 -5 12.32 -5 13 C-3.9275 13.2475 -2.855 13.495 -1.75 13.75 C2.09824365 15.03274788 3.23717975 16.23717975 6 19 C8.21858253 18.86358623 8.21858253 18.86358623 10 18 C9.83429357 16.07921611 9.83429357 16.07921611 9 14 C7.00419454 12.43293552 7.00419454 12.43293552 4.5625 11.25 C3.75941406 10.82203125 2.95632812 10.3940625 2.12890625 9.953125 C-1.32585541 8.40640602 -1.71606234 8.81070822 -5 11 Z M-29 13 C-29 13.66 -29 14.32 -29 15 C-28.34 15 -27.68 15 -27 15 C-27 14.34 -27 13.68 -27 13 C-27.66 13 -28.32 13 -29 13 Z M15 13 C15 13.66 15 14.32 15 15 C15.66 15 16.32 15 17 15 C17 14.34 17 13.68 17 13 C16.34 13 15.68 13 15 13 Z M-11 16 C-11 16.33 -11 16.66 -11 17 C-7.7 17 -4.4 17 -1 17 C-1 16.67 -1 16.34 -1 16 C-4.3 16 -7.6 16 -11 16 Z M-32 17 C-31.67 17.66 -31.34 18.32 -31 19 C-30.34 18.67 -29.68 18.34 -29 18 C-29.99 17.67 -30.98 17.34 -32 17 Z M-26 17 C-26.33 17.66 -26.66 18.32 -27 19 C-26.01 18.67 -25.02 18.34 -24 18 C-24.66 17.67 -25.32 17.34 -26 17 Z M12 17 C12.33 17.66 12.66 18.32 13 19 C13.66 18.67 14.32 18.34 15 18 C14.01 17.67 13.02 17.34 12 17 Z M18 17 C17.67 17.66 17.34 18.32 17 19 C17.99 18.67 18.98 18.34 20 18 C19.34 17.67 18.68 17.34 18 17 Z M-12.5 21.5 C-14.62153384 25.03588973 -14.791013 27.97901723 -14 32 C-12.66666667 34.66666667 -12.66666667 34.66666667 -10 36 C-5.97901723 36.791013 -3.03588973 36.62153384 0.5 34.5 C2.62153384 30.96411027 2.791013 28.02098277 2 24 C0.66666667 21.33333333 0.66666667 21.33333333 -2 20 C-6.02098277 19.208987 -8.96411027 19.37846616 -12.5 21.5 Z M-24 21 C-24.99 21.66 -25.98 22.32 -27 23 C-27.36416047 25.43693311 -27.36416047 25.43693311 -27.1875 28.125 C-27.16042969 29.03507812 -27.13335938 29.94515625 -27.10546875 30.8828125 C-27.07066406 31.58148438 -27.03585938 32.28015625 -27 33 C-24.525 33.99 -24.525 33.99 -22 35 C-20.68737429 33.91447634 -20.68737429 33.91447634 -20.90234375 31.27734375 C-20.91394531 30.17519531 -20.92554688 29.07304687 -20.9375 27.9375 C-20.94652344 26.83277344 -20.95554687 25.72804688 -20.96484375 24.58984375 C-20.97644531 23.73519531 -20.98804688 22.88054688 -21 22 C-21.99 21.67 -22.98 21.34 -24 21 Z M10 21 C8.68737429 22.08552366 8.68737429 22.08552366 8.90234375 24.72265625 C8.91394531 25.82480469 8.92554688 26.92695313 8.9375 28.0625 C8.94652344 29.16722656 8.95554688 30.27195312 8.96484375 31.41015625 C8.97644531 32.26480469 8.98804688 33.11945312 9 34 C9.99 34.33 10.98 34.66 12 35 C12.99 34.34 13.98 33.68 15 33 C15.36416047 30.56306689 15.36416047 30.56306689 15.1875 27.875 C15.16042969 26.96492188 15.13335937 26.05484375 15.10546875 25.1171875 C15.07066406 24.41851563 15.03585938 23.71984375 15 23 C12.525 22.01 12.525 22.01 10 21 Z M-18 23 C-18 26.3 -18 29.6 -18 33 C-17.67 33 -17.34 33 -17 33 C-17 29.7 -17 26.4 -17 23 C-17.33 23 -17.66 23 -18 23 Z M5 23 C5 26.3 5 29.6 5 33 C5.33 33 5.66 33 6 33 C6 29.7 6 26.4 6 23 C5.67 23 5.34 23 5 23 Z M-29 36 C-29 36.66 -29 37.32 -29 38 C-28.34 38 -27.68 38 -27 38 C-27 37.34 -27 36.68 -27 36 C-27.66 36 -28.32 36 -29 36 Z M15 36 C15 36.66 15 37.32 15 38 C15.66 38 16.32 38 17 38 C17 37.34 17 36.68 17 36 C16.34 36 15.68 36 15 36 Z M-21 37 C-21.33 38.32 -21.66 39.64 -22 41 C-20.45245118 42.06375201 -18.88621816 43.10036014 -17.3125 44.125 C-16.00732422 44.99511719 -16.00732422 44.99511719 -14.67578125 45.8828125 C-12.01072329 47.32378751 -12.01072329 47.32378751 -9.16796875 46.1796875 C-8.45253906 45.79039063 -7.73710937 45.40109375 -7 45 C-7 44.34 -7 43.68 -7 43 C-8.0725 42.7525 -9.145 42.505 -10.25 42.25 C-14.07008662 40.97663779 -15.33689535 39.85332641 -18 37 C-18.99 37 -19.98 37 -21 37 Z M6 37 C5.4225 37.61875 4.845 38.2375 4.25 38.875 C1.39303758 41.57324229 -1.21973355 42.12763082 -5 43 C-4.36868819 46.0703233 -4.36868819 46.0703233 -2.265625 46.87109375 C0.96270944 47.05477485 2.56167054 45.79576504 5.25 44.0625 C6.14203125 43.49660156 7.0340625 42.93070313 7.953125 42.34765625 C8.62859375 41.90292969 9.3040625 41.45820312 10 41 C9.67 39.68 9.34 38.36 9 37 C8.01 37 7.02 37 6 37 Z M-11 39 C-11 39.33 -11 39.66 -11 40 C-7.7 40 -4.4 40 -1 40 C-1 39.67 -1 39.34 -1 39 C-4.3 39 -7.6 39 -11 39 Z M-32 40 C-31.67 40.66 -31.34 41.32 -31 42 C-30.34 41.67 -29.68 41.34 -29 41 C-29.99 40.67 -30.98 40.34 -32 40 Z M-26 40 C-26.33 40.66 -26.66 41.32 -27 42 C-26.01 41.67 -25.02 41.34 -24 41 C-24.66 40.67 -25.32 40.34 -26 40 Z M12 40 C12.33 40.66 12.66 41.32 13 42 C13.66 41.67 14.32 41.34 15 41 C14.01 40.67 13.02 40.34 12 40 Z M18 40 C17.67 40.66 17.34 41.32 17 42 C17.99 41.67 18.98 41.34 20 41 C19.34 40.67 18.68 40.34 18 40 Z M-7 48 C-7 48.66 -7 49.32 -7 50 C-6.34 50 -5.68 50 -5 50 C-5 49.34 -5 48.68 -5 48 C-5.66 48 -6.32 48 -7 48 Z M-10 52 C-9.67 52.66 -9.34 53.32 -9 54 C-8.34 53.67 -7.68 53.34 -7 53 C-7.99 52.67 -8.98 52.34 -10 52 Z M-4 52 C-4.33 52.66 -4.66 53.32 -5 54 C-4.01 53.67 -3.02 53.34 -2 53 C-2.66 52.67 -3.32 52.34 -4 52 Z " fill="#6366B1" transform="translate(34,2)"/>
<path d="M0 0 C0.66 0.33 1.32 0.66 2 1 C2 4.3 2 7.6 2 11 C-2.37758969 13.18879485 -3.4448326 13.08927916 -8 12 C-8.66 11.67 -9.32 11.34 -10 11 C-10 7.7 -10 4.4 -10 1 C-5.62241031 -1.18879485 -4.5551674 -1.08927916 0 0 Z M-5 2 C-5 2.66 -5 3.32 -5 4 C-4.34 4 -3.68 4 -3 4 C-3 3.34 -3 2.68 -3 2 C-3.66 2 -4.32 2 -5 2 Z M-8 6 C-7.67 6.99 -7.34 7.98 -7 9 C-6.34 9 -5.68 9 -5 9 C-5.33 8.01 -5.66 7.02 -6 6 C-6.66 6 -7.32 6 -8 6 Z M-2 6 C-2.33 6.99 -2.66 7.98 -3 9 C-2.01 8.67 -1.02 8.34 0 8 C0 7.34 0 6.68 0 6 C-0.66 6 -1.32 6 -2 6 Z " fill="#6466B1" transform="translate(32,24)"/>
</svg>
